<svg width="50" height="50" viewBox="0 0 50 50" fill="none" xmlns="http://www.w3.org/2000/svg">
<g filter="url(#filter0_d_1_531)">
<path d="M27.5251 1.02723C26.8576 0.746876 26.1219 0.672507 25.4122 0.814173C24.7024 0.955468 24.0509 1.30647 23.5415 1.82144L14.0102 11.3687H6.38272C4.68978 11.3687 3.06656 12.0424 1.86923 13.2419C0.672275 14.4417 0 16.0685 0 17.7652V30.5583C0 32.2549 0.672285 33.8816 1.86923 35.0815C3.06646 36.2811 4.68969 36.9548 6.38272 36.9548H14.0102L23.5415 46.502C24.2257 47.1869 25.154 47.5707 26.1212 47.568C26.6031 47.5691 27.0807 47.4732 27.5251 47.2858C28.1933 47.011 28.7647 46.5436 29.1672 45.9428C29.5698 45.3423 29.785 44.6351 29.7857 43.9115V4.43956C29.7924 3.70967 29.5805 2.99425 29.1776 2.38639C28.7747 1.77809 28.1992 1.30516 27.5251 1.02808L27.5251 1.02723ZM25.5305 42.4658L16.3979 33.3134C15.9987 32.9137 15.4574 32.6891 14.8926 32.6898H6.38253C5.81821 32.6898 5.27686 32.4649 4.87803 32.0652C4.47919 31.6655 4.25472 31.123 4.25472 30.5574V17.7643C4.25472 17.1988 4.47919 16.6563 4.87803 16.2566C5.27688 15.8569 5.81819 15.6319 6.38253 15.6319H14.8926C15.4573 15.6327 15.9987 15.4081 16.3979 15.0084L25.5305 5.85599V42.4658Z" fill="#4156A6"/>
<path d="M38.2959 24.1615C38.2959 24.727 38.52 25.2692 38.9188 25.6692C39.3181 26.0689 39.859 26.2935 40.4233 26.2935H44.6786C45.4388 26.2935 46.1411 25.8871 46.521 25.2275C46.9009 24.5679 46.9009 23.7551 46.521 23.0955C46.1411 22.4359 45.4387 22.0295 44.6786 22.0295H40.4233C39.859 22.0295 39.318 22.2541 38.9188 22.6538C38.52 23.0539 38.2959 23.596 38.2959 24.1616V24.1615Z" fill="#4156A6"/>
<path d="M38.9187 9.85962L34.6635 14.1241V14.1237C34.1259 14.6628 33.9159 15.4481 34.1125 16.1843C34.3095 16.9205 34.8831 17.4957 35.6178 17.6928C36.3524 17.8903 37.1363 17.6798 37.6739 17.1407L41.9292 12.8762V12.8766C42.4671 12.3374 42.6771 11.5521 42.4801 10.816C42.2835 10.0798 41.7095 9.50459 40.9749 9.30746C40.2402 9.11002 39.4567 9.32047 38.9187 9.85962V9.85962Z" fill="#4156A6"/>
<path d="M34.6635 34.1986L38.9187 38.4631V38.4627C39.4567 39.0018 40.2403 39.2123 40.9749 39.0148C41.7095 38.8178 42.2834 38.2426 42.4801 37.5063C42.6771 36.7701 42.4671 35.9849 41.9292 35.4457L37.6739 31.1813V31.1816C37.1363 30.6425 36.3524 30.432 35.6178 30.6295C34.8832 30.8265 34.3096 31.4018 34.1125 32.138C33.9159 32.8742 34.1259 33.6595 34.6635 34.1986V34.1986Z" fill="#4156A6"/>
</g>
<defs>
<filter id="filter0_d_1_531" x="0" y="0.744141" width="49.8057" height="48.824" filterUnits="userSpaceOnUse" color-interpolation-filters="sRGB">
<feFlood flood-opacity="0" result="BackgroundImageFix"/>
<feColorMatrix in="SourceAlpha" type="matrix" values="0 0 0 0 0 0 0 0 0 0 0 0 0 0 0 0 0 0 127 0" result="hardAlpha"/>
<feOffset dx="3" dy="2"/>
<feComposite in2="hardAlpha" operator="out"/>
<feColorMatrix type="matrix" values="0 0 0 0 0.968627 0 0 0 0 0.631373 0 0 0 0 0.603922 0 0 0 1 0"/>
<feBlend mode="normal" in2="BackgroundImageFix" result="effect1_dropShadow_1_531"/>
<feBlend mode="normal" in="SourceGraphic" in2="effect1_dropShadow_1_531" result="shape"/>
</filter>
</defs>
</svg>
